<?xml version="1.0" encoding="iso-8859-1"?>
<!-- Generator: Adobe Illustrator 19.0.0, SVG Export Plug-In . SVG Version: 6.00 Build 0)  -->
<svg version="1.1" id="Capa_1" xmlns="http://www.w3.org/2000/svg" xmlns:xlink="http://www.w3.org/1999/xlink" x="0px" y="0px"
	 viewBox="0 0 512 512" style="enable-background:new 0 0 512 512;" xml:space="preserve">
<circle style="fill:#15AEAC;" cx="256" cy="256" r="256"/>
<path style="fill:#178C78;" d="M256,512c141.385,0,256-114.615,256-256c0-11.807-0.817-23.422-2.365-34.805l-92.394-92.393
	L312.243,148.17l46.758,46.758V337.93L156,138.93l-48.656,8.221l58.218,58.218v290.178C193.684,506.17,224.159,512,256,512z"/>
<path style="fill:#090909;" d="M484.001,372.531c-49.008-31.546-131.115-52.236-224.152-52.236
	c-96.735,0-181.657,22.366-229.839,56.047C73.083,457.059,158.12,512,256,512C355.417,512,441.597,455.33,484.001,372.531z"/>
<path style="fill:#FFFFFF;" d="M479.13,381.552c5.656-10.031,10.666-20.475,14.95-31.286
	c-14.905-4.927-55.809-17.241-115.067-25.638V174.165c0-14.357,11.639-25.995,25.995-25.995h12.233v-19.369H312.243v19.369h12.233
	c14.356,0,25.995,11.639,25.995,25.995V321.08c-0.134-0.015-0.264-0.03-0.398-0.044L173.095,128.801h-65.751v18.35h25.995
	l12.233,14.039v162.358c-40.595,5.339-83.374,13.928-127.609,26.822c4.34,10.939,9.42,21.502,15.164,31.64
	c38.856-10.551,76.508-17.83,112.445-22.558v5.34c0,14.356-11.638,25.995-25.995,25.995h-12.233v19.369h104.998v-19.369h-12.233
	c-14.356,0-25.995-11.639-25.995-25.995V356.2C320.071,341.943,433.911,368.41,479.13,381.552z M174.115,193.948L280.882,316.48
	c-32.987-0.854-68.787,0.104-106.767,3.815L174.115,193.948L174.115,193.948z"/>
<path style="fill:#E0E0E0;" d="M379.014,324.628V174.165c0-14.357,11.639-25.995,25.995-25.995h12.233v-19.369H312.244v19.369
	h12.233c14.356,0,25.995,11.639,25.995,25.995V321.08c-0.134-0.015-0.264-0.03-0.398-0.044L256,218.853v69.07l24.882,28.556
	c-8.126-0.21-16.424-0.31-24.882-0.286v35.914c106.077-0.291,186.779,18.879,223.13,29.444c5.656-10.031,10.666-20.475,14.95-31.286
	C479.176,345.338,438.272,333.025,379.014,324.628z"/>
<g>
</g>
<g>
</g>
<g>
</g>
<g>
</g>
<g>
</g>
<g>
</g>
<g>
</g>
<g>
</g>
<g>
</g>
<g>
</g>
<g>
</g>
<g>
</g>
<g>
</g>
<g>
</g>
<g>
</g>
</svg>
