<?xml version="1.0" encoding="iso-8859-1"?>
<!-- Generator: Adobe Illustrator 19.0.0, SVG Export Plug-In . SVG Version: 6.00 Build 0)  -->
<svg version="1.1" id="Capa_1" xmlns="http://www.w3.org/2000/svg" xmlns:xlink="http://www.w3.org/1999/xlink" x="0px" y="0px"
	 viewBox="0 0 480 480" style="enable-background:new 0 0 480 480;" xml:space="preserve">
<polygon style="fill:#FF9F1C;" points="0,104 48,104 48,432 112,432 112,104 160,104 160,40 0,40 "/>
<g>
	<path style="fill:#60C4C2;" d="M310.592,150.592c21.832-21.832,16.944-62.12,16.944-62.12s-40.288-4.888-62.12,16.944
		s-16.944,62.12-16.944,62.12S288.76,172.424,310.592,150.592z"/>
	<path style="fill:#60C4C2;" d="M247.72,135.72c0,0,2.936-24.176-10.168-37.272C224.456,85.352,200.28,88.28,200.28,88.28
		s-2.936,24.176,10.168,37.272S247.72,135.72,247.72,135.72z"/>
</g>
<path style="fill:#CBF3F0;" d="M136,320c0,61.856,50.144,112,112,112c-48.6,0-88-42.984-88-96s39.4-96,88-96l0.464-71.768L216,152
	v60.752C169.752,226.536,136,269.28,136,320z"/>
<path style="fill:#FF9F1C;" d="M248,272v32v128c61.856,0,112-50.144,112-112c0-50.72-33.752-93.464-80-107.248V184l-31.536-15.768
	L248,240V272z M327.608,328c0.264-2.632,0.392-5.304,0.392-8c0-2.704-0.136-5.368-0.392-8c0.264,2.632,0.392,5.296,0.392,8
	C328,322.696,327.864,325.368,327.608,328c-0.272,2.712-0.672,5.376-1.208,8C326.936,333.376,327.336,330.712,327.608,328z
	 M321.344,352c-8.064,18.456-22.888,33.28-41.344,41.344C298.456,385.28,313.28,370.456,321.344,352z"/>
<path style="fill:#60C4C2;" d="M184,352c0-44.184,28.656-80,64-80v-32c-48.6,0-88,42.984-88,96s39.4,96,88,96
	C212.656,432,184,396.184,184,352z"/>
<path style="fill:#CBF3F0;" d="M208,368c0-35.344,17.912-64,40-64v-32c-35.344,0-64,35.816-64,80s28.656,80,64,80
	C225.912,432,208,403.344,208,368z"/>
<path style="fill:#60C4C2;" d="M208,368c0,35.344,17.912,64,40,64V304C225.912,304,208,332.656,208,368z"/>
<path style="fill:#FF9F1C;" d="M472,200c-48.52,0-88,39.48-88,88v152h64V288c0-13.232,10.768-24,24-24h8v-64H472z"/>
<g>
	<path style="fill:#E8EDED;" d="M283.2,400.672l-6.4-14.664c16.704-7.304,29.92-20.512,37.216-37.216l14.656,6.408
		C319.76,375.608,303.608,391.752,283.2,400.672z"/>
	<path style="fill:#E8EDED;" d="M334.24,337.592l-15.688-3.176c0.488-2.352,0.84-4.76,1.088-7.192c0.24-2.392,0.36-4.792,0.36-7.224
		s-0.12-4.832-0.36-7.192l15.92-1.608c0.288,2.896,0.44,5.832,0.44,8.8s-0.152,5.904-0.44,8.808
		C335.272,331.76,334.824,334.704,334.24,337.592z"/>
</g>
<g>
</g>
<g>
</g>
<g>
</g>
<g>
</g>
<g>
</g>
<g>
</g>
<g>
</g>
<g>
</g>
<g>
</g>
<g>
</g>
<g>
</g>
<g>
</g>
<g>
</g>
<g>
</g>
<g>
</g>
</svg>
